<svg width="16" height="16" fill="none" xmlns="http://www.w3.org/2000/svg">
  <path
    d="M1.5 4.75h1.29c.832 0 1.394.037 1.686.112.294.075.518.198.671.37.153.171.248.362.287.574.038.209.057.62.057 1.236V9.32c0 .583-.029.974-.086 1.172a.877.877 0 0 1-.29.462c-.14.11-.312.187-.516.233-.205.043-.513.064-.926.064H1.5v-6.5Zm1.723 1.112v4.276c.249 0 .401-.048.459-.145.057-.099.086-.365.086-.799V6.67c0-.294-.01-.483-.029-.566a.262.262 0 0 0-.131-.18c-.068-.04-.196-.06-.385-.06ZM6.526 4.75H9.4v1.3H8.25v1.233h1.076V8.52H8.25v1.43h1.264v1.3H6.526v-6.5ZM14.5 4.75l-.876 6.5h-2.616l-.994-6.5h1.817c.21 1.79.36 3.304.45 4.54.09-1.25.185-2.36.283-3.332l.119-1.208H14.5Z"
    fill="#14C57C" />
</svg>