<svg xmlns="http://www.w3.org/2000/svg" fill="none">
    <defs>
        <symbol id="icon-location" viewBox="0 0 32 32">
            <path stroke-linejoin="round" stroke-linecap="round" stroke-width="1.333"
                d="M20 14a4.003 4.003 0 0 1-4 4 4.003 4.003 0 0 1-4-4 4.003 4.003 0 0 1 4-4 4.003 4.003 0 0 1 4 4z" />
            <path stroke-linejoin="round" stroke-linecap="round" stroke-width="1.333"
                d="M26 14c0 9.523-10 15-10 15S6 23.523 6 14a10.001 10.001 0 0 1 20 0z" />
        </symbol>
        <symbol id="icon-upper_arrow" viewBox="0 0 32 32">
            <path stroke-linecap="round" stroke-width="2.667" d="m24 20-8-8-8 8" />
        </symbol>
        <symbol id="icon-user" viewBox="0 0 32 32">
            <path stroke-linejoin="round" stroke-linecap="round" stroke-width="2.667"
                d="M26.667 28c0-1.861 0-2.791-.229-3.548a5.36 5.36 0 0 0-3.518-3.546l-.038-.01c-.757-.229-1.687-.229-3.548-.229h-6.667c-1.861 0-2.791 0-3.548.229a5.357 5.357 0 0 0-3.546 3.518l-.01.038c-.229.757-.229 1.687-.229 3.548M16 16a6 6 0 1 0 0-12 6 6 0 1 0 0 12z" />
        </symbol>
        <symbol id="icon-Visit_arrow" viewBox="0 0 32 32">
            <path stroke-linejoin="round" stroke-linecap="round" stroke-width="3.556"
                d="M3.111 28.889 28.889 3.111m0 0h-24m24 0v24" />
        </symbol>
        <symbol id="icon-close" viewBox="0 0 32 32">
            <path stroke-linejoin="round" stroke-linecap="round" stroke-width="2" d="M24 8 8 24M8 8l16 16" />
        </symbol>
        <symbol id="icon-burger" viewBox="0 0 32 32">
            <path
                d="M5.334 23.027v-1.333h21.333v1.333H5.334zm0-6.36v-1.333h21.333v1.333H5.334zm0-6.36V8.974h21.333v1.333H5.334z" />
        </symbol>
        <symbol id="icon-right_arrow" viewBox="0 0 32 32">
            <path stroke-linejoin="round" stroke-linecap="round" stroke-width="2.667"
                d="M5.333 16h21.333M18.667 8l8 8-8 8" />
        </symbol>
        <symbol id="icon-left_arrow" viewBox="0 0 32 32">
            <path stroke-linejoin="round" stroke-linecap="round" stroke-width="2.667"
                d="M26.667 16H5.334M13.333 24l-8-8 8-8" />
        </symbol>
        <symbol id="icon-down_arrow" viewBox="0 0 32 32">
            <path stroke-linecap="round" stroke-width="2.667" d="m24 12-8 8-8-8" />
        </symbol>
        <symbol id="icon-sandclock" viewBox="0 0 23 32">
            <path stroke-linejoin="round" stroke-linecap="round" stroke-width="2.909"
                d="M20.6 1.455H2.673C2 1.455 1.455 2 1.455 2.673c0 3.877 1.54 7.595 4.281 10.336l1.773 1.773c.176.176.264.264.327.349a1.454 1.454 0 0 1 0 1.739 3.703 3.703 0 0 1-.327.349l-1.773 1.773a14.617 14.617 0 0 0-4.281 10.336c0 .673.545 1.218 1.218 1.218H20.6c.673 0 1.218-.545 1.218-1.218 0-3.877-1.54-7.595-4.281-10.336l-1.773-1.773a3.58 3.58 0 0 1-.327-.349 1.454 1.454 0 0 1 0-1.739 3.58 3.58 0 0 1 .327-.349l1.773-1.773a14.617 14.617 0 0 0 4.281-10.336c0-.673-.545-1.218-1.218-1.218z" />
        </symbol>
        <symbol id="icon-pen" viewBox="0 0 31 32">
            <path stroke-linejoin="round" stroke-linecap="round" stroke-width="2.783"
                d="M1.391 29.216c2.783 0 6.411.475 8.313-1.426a4.87 4.87 0 1 0-6.887-6.887c-1.902 1.902 0 5.53-1.426 8.313z" />
            <path stroke-linejoin="round" stroke-linecap="round" stroke-width="2.783"
                d="M9.739 20.868c-.684-.684-1.026-1.026-1.219-1.384a2.782 2.782 0 0 1 .053-2.737c.207-.35.562-.679 1.271-1.336L23.573 2.699a3.067 3.067 0 0 1 4.335 4.335L15.195 20.763c-.657.709-.985 1.064-1.336 1.271a2.784 2.784 0 0 1-2.737.053c-.358-.193-.7-.535-1.384-1.219z" />
        </symbol>
        <symbol id="icon-message" viewBox="0 0 32 32">
            <path stroke-linejoin="round" stroke-linecap="round" stroke-width="2.667"
                d="M8.126 14.972A10.66 10.66 0 0 1 8 13.334C8 7.443 12.807 2.667 18.737 2.667s10.737 4.776 10.737 10.667c0 1.331-.245 2.605-.693 3.779-.093.244-.14.366-.161.461s-.029.161-.031.257c-.002.097.011.205.037.42l.537 4.36c.058.472.087.708.009.88a.667.667 0 0 1-.343.335c-.173.075-.409.04-.879-.029l-4.247-.623a2.965 2.965 0 0 0-.434-.048c-.1.001-.169.008-.267.028s-.225.068-.477.163a10.78 10.78 0 0 1-3.787.683c-.558 0-1.105-.042-1.64-.124m-6.923 5.457c3.953 0 7.158-3.283 7.158-7.333s-3.205-7.333-7.158-7.333c-3.953 0-7.158 3.283-7.158 7.333 0 .814.13 1.597.369 2.329.101.309.152.464.168.57.017.11.02.172.014.284-.006.107-.033.227-.086.469l-.815 3.682 3.993-.545c.218-.03.327-.045.422-.044.1.001.153.006.252.026.093.019.232.067.51.165a6.994 6.994 0 0 0 2.332.398z" />
        </symbol>
        <symbol id="icon-mail" viewBox="0 0 44 32">
            <path stroke-linejoin="round" stroke-linecap="round" stroke-width="2"
                d="M41.5 5.5v21A4.5 4.5 0 0 1 37 31H7a4.5 4.5 0 0 1-4.5-4.5v-21m39 0A4.5 4.5 0 0 0 37 1H7a4.5 4.5 0 0 0-4.5 4.5m39 0v.486a4.494 4.494 0 0 1-2.14 3.832l-15 9.23a4.503 4.503 0 0 1-4.72 0l-15-9.228A4.494 4.494 0 0 1 2.5 5.988V5.5" />
        </symbol>
        <symbol id="icon-phone" viewBox="0 0 32 32">
            <path
                d="M3 9c0 11.045 8.955 20 20 20h3a3.004 3.004 0 0 0 3-3v-1.829a1.5 1.5 0 0 0-1.136-1.455l-5.897-1.475a1.498 1.498 0 0 0-1.564.556l-1.293 1.724c-.376.501-1.025.723-1.613.507a16.028 16.028 0 0 1-9.524-9.524c-.216-.588.005-1.237.507-1.613l1.724-1.293c.484-.361.703-.979.556-1.564L9.285 4.137A1.498 1.498 0 0 0 7.83 3.001H6.001a3.004 3.004 0 0 0-3 3v3z" />
        </symbol>
        <symbol id="icon-Arrow" viewBox="0 0 60 32">
            <path
                d="M2 14a2 2 0 1 0 0 4v-4zm57.414 3.414a2 2 0 0 0 0-2.828L46.686 1.858a2 2 0 1 0-2.828 2.828L55.172 16 43.858 27.314a2 2 0 1 0 2.828 2.828l12.728-12.728zM2 18h56v-4H2v4z" />
        </symbol>

    </defs>
</svg>