<svg aria-hidden="true" style="position: absolute; width: 0; height: 0; overflow: hidden;" version="1.1"
    xmlns="http://www.w3.org/2000/svg" xmlns:xlink="http://www.w3.org/1999/xlink">
    <defs>
        <symbol id="icon-location" viewBox="0 0 32 32">
            <path stroke-linejoin="round" stroke-linecap="round" stroke-miterlimit="4" stroke-width="1.3333"
                d="M20 14c0 1.061-0.421 2.078-1.172 2.828s-1.768 1.172-2.828 1.172c-1.061 0-2.078-0.421-2.828-1.172s-1.172-1.768-1.172-2.828c0-1.061 0.421-2.078 1.172-2.828s1.768-1.172 2.828-1.172c1.061 0 2.078 0.421 2.828 1.172s1.172 1.768 1.172 2.828v0z">
            </path>
            <path stroke-linejoin="round" stroke-linecap="round" stroke-miterlimit="4" stroke-width="1.3333"
                d="M26 14c0 9.523-10 15-10 15s-10-5.477-10-15c0-2.652 1.054-5.196 2.929-7.071s4.419-2.929 7.071-2.929c2.652 0 5.196 1.054 7.071 2.929s2.929 4.419 2.929 7.071v0z">
            </path>
        </symbol>
        <symbol id="icon-upper_arrow" viewBox="0 0 32 32">
            <path stroke-linejoin="miter" stroke-linecap="round" stroke-miterlimit="4" stroke-width="2.6667"
                d="M24 20l-8-8-8 8"></path>
        </symbol>
        <symbol id="icon-user" viewBox="0 0 32 32">
            <path stroke-linejoin="round" stroke-linecap="round" stroke-miterlimit="4" stroke-width="2.6667"
                d="M26.667 28c0-1.861 0-2.791-0.229-3.548-0.529-1.708-1.848-3.026-3.518-3.546l-0.038-0.010c-0.757-0.229-1.687-0.229-3.548-0.229h-6.667c-1.861 0-2.791 0-3.548 0.229-1.708 0.529-3.027 1.848-3.546 3.518l-0.010 0.038c-0.229 0.757-0.229 1.687-0.229 3.548M16 16c3.314 0 6-2.686 6-6s-2.686-6-6-6v0c-3.314 0-6 2.686-6 6s2.686 6 6 6v0z">
            </path>
        </symbol>
        <symbol id="icon-Visit_arrow" viewBox="0 0 32 32">
            <path stroke-linejoin="round" stroke-linecap="round" stroke-miterlimit="4" stroke-width="3.5556"
                d="M3.111 28.889l25.778-25.778M28.889 3.111h-24M28.889 3.111v24"></path>
        </symbol>
        <symbol id="icon-close" viewBox="0 0 32 32">
            <path stroke-linejoin="round" stroke-linecap="round" stroke-miterlimit="4" stroke-width="2"
                d="M24 8l-16 16"></path>
            <path stroke-linejoin="round" stroke-linecap="round" stroke-miterlimit="4" stroke-width="2" d="M8 8l16 16">
            </path>
        </symbol>
        <symbol id="icon-burger" viewBox="0 0 32 32">
            <path
                d="M5.334 23.027v-1.333h21.333v1.333h-21.333zM5.334 16.667v-1.333h21.333v1.333h-21.333zM5.334 10.307v-1.333h21.333v1.333h-21.333z">
            </path>
        </symbol>
        <symbol id="icon-right_arrow" viewBox="0 0 32 32">
            <path stroke-linejoin="round" stroke-linecap="round" stroke-miterlimit="4" stroke-width="2.6667"
                d="M5.333 16h21.333"></path>
            <path stroke-linejoin="round" stroke-linecap="round" stroke-miterlimit="4" stroke-width="2.6667"
                d="M18.667 8l8 8-8 8"></path>
        </symbol>
        <symbol id="icon-left_arrow" viewBox="0 0 32 32">
            <path stroke-linejoin="round" stroke-linecap="round" stroke-miterlimit="4" stroke-width="2.6667"
                d="M26.667 16h-21.333"></path>
            <path stroke-linejoin="round" stroke-linecap="round" stroke-miterlimit="4" stroke-width="2.6667"
                d="M13.333 24l-8-8 8-8"></path>
        </symbol>
        <symbol id="icon-down_arrow" viewBox="0 0 32 32">
            <path stroke-linejoin="miter" stroke-linecap="round" stroke-miterlimit="4" stroke-width="2.6667"
                d="M24 12l-8 8-8-8"></path>
        </symbol>
        <symbol id="icon-sandclock" viewBox="0 0 23 32">
            <path stroke-linejoin="round" stroke-linecap="round" stroke-miterlimit="4" stroke-width="2.9091"
                d="M20.6 1.455h-17.927c-0.673 0-1.218 0.545-1.218 1.218 0 3.877 1.54 7.595 4.281 10.336l1.773 1.773c0.176 0.176 0.264 0.264 0.327 0.349 0.385 0.516 0.385 1.223 0 1.739-0.063 0.084-0.151 0.173-0.327 0.349l-1.773 1.773c-2.741 2.741-4.281 6.459-4.281 10.336 0 0.673 0.545 1.218 1.218 1.218h17.927c0.673 0 1.218-0.545 1.218-1.218 0-3.877-1.54-7.595-4.281-10.336l-1.773-1.773c-0.176-0.176-0.264-0.264-0.327-0.349-0.385-0.516-0.385-1.223 0-1.739 0.063-0.085 0.151-0.173 0.327-0.349l1.773-1.773c2.741-2.741 4.281-6.459 4.281-10.336 0-0.673-0.545-1.218-1.218-1.218z">
            </path>
        </symbol>
        <symbol id="icon-pen" viewBox="0 0 31 32">
            <path stroke-linejoin="round" stroke-linecap="round" stroke-miterlimit="4" stroke-width="2.7826"
                d="M1.391 29.216c2.783 0 6.411 0.475 8.313-1.426s1.902-4.985 0-6.887c-1.902-1.902-4.985-1.902-6.887 0s0 5.53-1.426 8.313z">
            </path>
            <path stroke-linejoin="round" stroke-linecap="round" stroke-miterlimit="4" stroke-width="2.7826"
                d="M9.739 20.868c-0.684-0.684-1.026-1.026-1.219-1.384-0.463-0.859-0.444-1.897 0.053-2.737 0.207-0.35 0.562-0.679 1.271-1.336l13.729-12.712c1.209-1.12 3.087-1.084 4.253 0.082s1.202 3.043 0.082 4.253l-12.713 13.729c-0.657 0.709-0.985 1.064-1.336 1.271-0.84 0.496-1.879 0.516-2.737 0.053-0.358-0.193-0.7-0.535-1.384-1.219z">
            </path>
        </symbol>
        <symbol id="icon-message" viewBox="0 0 32 32">
            <path stroke-linejoin="round" stroke-linecap="round" stroke-miterlimit="4" stroke-width="2.6667"
                d="M8.126 14.972c-0.083-0.534-0.126-1.081-0.126-1.638 0-5.891 4.807-10.667 10.737-10.667s10.737 4.776 10.737 10.667c0 1.331-0.245 2.605-0.693 3.779-0.093 0.244-0.14 0.366-0.161 0.461s-0.029 0.161-0.031 0.257c-0.002 0.097 0.011 0.205 0.037 0.42l0.537 4.36c0.058 0.472 0.087 0.708 0.009 0.88-0.069 0.15-0.191 0.27-0.343 0.335-0.173 0.075-0.409 0.040-0.879-0.029l-4.247-0.623c-0.222-0.033-0.333-0.049-0.434-0.048-0.1 0.001-0.169 0.008-0.267 0.028s-0.225 0.068-0.477 0.163c-1.178 0.441-2.454 0.683-3.787 0.683-0.558 0-1.105-0.042-1.64-0.124M10.175 29.333c3.953 0 7.158-3.283 7.158-7.333s-3.205-7.333-7.158-7.333c-3.953 0-7.158 3.283-7.158 7.333 0 0.814 0.13 1.597 0.369 2.329 0.101 0.309 0.152 0.464 0.168 0.57 0.017 0.11 0.020 0.172 0.014 0.284-0.006 0.107-0.033 0.227-0.086 0.469l-0.815 3.682 3.993-0.545c0.218-0.030 0.327-0.045 0.422-0.044 0.1 0.001 0.153 0.006 0.252 0.026 0.093 0.019 0.232 0.067 0.51 0.165 0.731 0.258 1.516 0.398 2.332 0.398z">
            </path>
        </symbol>
        <symbol id="icon-mail" viewBox="0 0 44 32">
            <path stroke-linejoin="round" stroke-linecap="round" stroke-miterlimit="4" stroke-width="2"
                d="M41.5 5.5v21c0 1.193-0.474 2.338-1.318 3.182s-1.989 1.318-3.182 1.318h-30c-1.193 0-2.338-0.474-3.182-1.318s-1.318-1.989-1.318-3.182v-21M41.5 5.5c0-1.193-0.474-2.338-1.318-3.182s-1.989-1.318-3.182-1.318h-30c-1.193 0-2.338 0.474-3.182 1.318s-1.318 1.988-1.318 3.182M41.5 5.5v0.486c0 0.768-0.197 1.524-0.571 2.195s-0.915 1.234-1.569 1.637l-15 9.23c-0.71 0.437-1.527 0.669-2.36 0.669s-1.65-0.231-2.36-0.669l-15-9.228c-0.654-0.403-1.194-0.967-1.569-1.637s-0.571-1.426-0.571-2.195v-0.488">
            </path>
        </symbol>
        <symbol id="icon-phone" viewBox="0 0 32 32">
            <path stroke-linejoin="round" stroke-linecap="round" stroke-miterlimit="4" stroke-width="1.3333"
                d="M3 9c0 11.045 8.955 20 20 20h3c0.796 0 1.559-0.316 2.121-0.879s0.879-1.326 0.879-2.121v-1.829c0-0.688-0.468-1.288-1.136-1.455l-5.897-1.475c-0.587-0.147-1.203 0.073-1.564 0.556l-1.293 1.724c-0.376 0.501-1.025 0.723-1.613 0.507-2.183-0.803-4.165-2.070-5.81-3.714s-2.912-3.627-3.714-5.81c-0.216-0.588 0.005-1.237 0.507-1.613l1.724-1.293c0.484-0.361 0.703-0.979 0.556-1.564l-1.475-5.897c-0.081-0.324-0.268-0.612-0.532-0.818s-0.588-0.318-0.923-0.318h-1.829c-0.796 0-1.559 0.316-2.121 0.879s-0.879 1.326-0.879 2.121v3z">
            </path>
        </symbol>
        <symbol id="icon-Arrow" viewBox="0 0 60 32">
            <path
                d="M2 14c-1.105 0-2 0.895-2 2s0.895 2 2 2v-4zM59.414 17.414c0.781-0.781 0.781-2.047 0-2.828l-12.728-12.728c-0.781-0.781-2.047-0.781-2.828 0s-0.781 2.047 0 2.828l11.314 11.314-11.314 11.314c-0.781 0.781-0.781 2.047 0 2.828s2.047 0.781 2.828 0l12.728-12.728zM2 18h56v-4h-56v4z">
            </path>
        </symbol>
    </defs>
</svg>